<svg version="1.1" id="Layer_1" xmlns="http://www.w3.org/2000/svg" xmlns:xlink="http://www.w3.org/1999/xlink" x="0px" y="0px"
	 viewBox="562 -356.9 488 764" style="enable-background:new 562 -356.9 488 764;" xml:space="preserve">
<style type="text/css">
	.st0{fill:#F8CA10;}
	.st1{fill:#1D85B2;}
	.st2{fill:none;stroke:#000000;stroke-width:10;stroke-miterlimit:10;}
	.st3{fill:none;stroke:#FFFFFF;stroke-width:16;stroke-miterlimit:10;}
	.st4{fill:none;stroke:#000000;stroke-width:6;stroke-miterlimit:10;}
	.st5{fill:none;stroke:#000000;stroke-width:4;stroke-miterlimit:10;}
	.st6{fill:#FFFFFF;}
	.st7{fill:#F26822;stroke:#000000;stroke-width:6;stroke-miterlimit:10;}
	.st8{fill:none;stroke:#000000;stroke-width:5;stroke-miterlimit:10;}
	.st9{fill:#3D7D3C;}
	.st10{fill:#2B9C47;}
</style>
<g>
	<polygon class="st0" points="586.5,-37.1 656.2,5 683.8,-52.4 693.1,-42.5 726.2,-71.7 720.1,-80.5 708.9,-105.2 705.1,-123.5 
		705.2,-144.8 709.5,-165.6 721.5,-191 732.5,-205.4 763.7,-228.1 802.4,-238.1 816.1,-238.7 823.3,-261.7 828.6,-294.1 
		832.3,-317.4 842.4,-297.1 856.2,-265.5 864.5,-276.2 883.3,-234.5 910.5,-223.1 944.9,-167.8 970.2,-67.2 1008.7,-1.1 1010.7,0.3 
		1032,-51.2 1040.8,-101.1 1037.2,-161.2 1018,-215.1 994.3,-255.7 957.5,-294.1 920.8,-318.9 847.4,-344.9 813.7,-348.2 
		778.3,-346.2 754.8,-341.6 719.8,-331.4 694.5,-320.1 663.3,-298.6 645.7,-284.2 627.3,-264.1 605.7,-232.9 590.3,-203.7 
		579.7,-170.6 573.8,-142.4 572.7,-105.4 575.7,-76.4 	"/>
	<polygon class="st0" points="862.8,-336.4 866.8,-339.5 903.8,-327.1 901.8,-318.4 	"/>
</g>
<polyline class="st1" points="676.5,144.4 755.7,144.4 937.4,144.4 806.9,386.1 "/>
<circle class="st2" cx="806.9" cy="-114" r="236.7"/>
<line class="st3" x1="610.4" y1="-5.6" x2="657.1" y2="82.8"/>
<line class="st3" x1="1003.7" y1="-5.4" x2="957.1" y2="83"/>
<path class="st4" d="M622.2,34"/>
<path class="st4" d="M821.3-249.6"/>
<path class="st4" d="M801.3-121.6"/>
<line class="st5" x1="571.4" y1="-146.9" x2="650" y2="-146.9"/>
<line class="st5" x1="891" y1="-292.9" x2="962" y2="-292.9"/>
<line class="st5" x1="980.4" y1="-107.6" x2="1043.7" y2="-107.6"/>
<ellipse class="st6" cx="794.3" cy="76.9" rx="137.3" ry="54.7"/>
<ellipse class="st6" cx="936.4" cy="69.1" rx="20.8" ry="27.2"/>
<circle class="st7" cx="808.1" cy="-135.2" r="102.4"/>
<polyline class="st8" points="1011.8,4.8 1008.7,2.1 968.7,-65.6 943.3,-166.9 910,-221.6 882.7,-232.9 864,-273.6 855.3,-261.6 
	833.3,-314.2 826,-264.9 806.9,-202.2 758,-138.9 744,-98.9 738.7,-80.2 693,-39.9 684,-49.9 657.1,8.1 582.8,-37.5 "/>
<line class="st5" x1="692" y1="-207.9" x2="769" y2="-207.9"/>
<path class="st9" d="M982.4,59.3"/>
<polyline class="st10" points="633.8,59.3 982.4,59.3 936.4,144.4 676.5,144.4 633.8,63.5 "/>
<line class="st2" x1="806.9" y1="391.2" x2="1024.3" y2="-19.9"/>
<polyline class="st2" points="806.9,391.2 633.8,63.5 589.6,-19.9 "/>
<line class="st4" x1="633.8" y1="59.3" x2="982.4" y2="59.3"/>
<line class="st4" x1="676.5" y1="144.4" x2="937.4" y2="144.4"/>
<polyline class="st2" points="799.3,376.7 806.9,394.5 814.6,376.7 "/>
<path class="st5" d="M821.8,363.1"/>
</svg>
